<svg xmlns="http://www.w3.org/2000/svg" width="210.153" height="235.813" viewBox="0 0 210.153 235.813">
  <path id="paperclip" d="M62.5,200A62.566,62.566,0,0,1,0,137.5V50a8.334,8.334,0,0,1,16.667,0v87.5a45.833,45.833,0,1,0,91.666,0V45.833a29.166,29.166,0,0,0-58.333,0v83.334a12.5,12.5,0,0,0,25,0V50a8.334,8.334,0,0,1,16.667,0v79.167a29.167,29.167,0,0,1-58.334,0V45.833a45.834,45.834,0,0,1,91.667,0V137.5A62.566,62.566,0,0,1,62.5,200Zm0,0" transform="translate(107.146 235.813) rotate(-149)" fill="#6ec177"/>
</svg>
