<?xml version="1.0" encoding="UTF-8"?>
<svg xmlns="http://www.w3.org/2000/svg" xmlns:xlink="http://www.w3.org/1999/xlink" width="384pt" height="383.999986pt" viewBox="0 0 384 383.999986" version="1.2">
<defs>
<clipPath id="clip1">
  <path d="M 23.738281 0 L 360.488281 0 L 360.488281 384 L 23.738281 384 Z M 23.738281 0 "/>
</clipPath>
</defs>
<g id="surface1">
<path style=" stroke:none;fill-rule:nonzero;fill:rgb(43.139648%,75.689697%,46.669006%);fill-opacity:1;" d="M 301.265625 128.96875 C 300.582031 127.71875 299.6875 126.480469 297.820312 125.535156 L 271.15625 110.148438 C 270.789062 109.9375 270.394531 109.777344 269.972656 109.667969 C 269.84375 109.636719 269.710938 109.636719 269.566406 109.617188 C 269.289062 109.566406 269.011719 109.519531 268.738281 109.519531 L 268.683594 109.519531 L 268.683594 109.53125 C 267.894531 109.542969 267.117188 109.757812 266.433594 110.148438 L 206.4375 144.769531 L 206.386719 144.664062 L 201.542969 147.464844 C 195.703125 150.828125 188.523438 150.828125 182.679688 147.464844 L 156.453125 132.335938 C 155 131.492188 154.101562 129.933594 154.101562 128.25 C 154.101562 126.566406 155 125.011719 156.453125 124.167969 L 182.679688 109.046875 C 188.523438 105.679688 195.703125 105.679688 201.542969 109.046875 L 207.859375 112.691406 C 209.320312 113.527344 211.109375 113.527344 212.566406 112.691406 L 236.996094 98.601562 C 238.457031 97.757812 239.351562 96.203125 239.351562 94.519531 C 239.351562 92.835938 238.457031 91.28125 236.996094 90.4375 L 201.542969 69.980469 C 195.703125 66.617188 188.523438 66.617188 182.679688 69.980469 L 95.835938 120.089844 C 89.546875 123.71875 89.546875 132.78125 95.835938 136.410156 L 182.679688 186.519531 C 188.523438 189.882812 195.703125 189.882812 201.542969 186.519531 L 268.683594 147.78125 L 268.683594 236.023438 L 247.109375 248.511719 L 201.542969 274.878906 C 200.097656 275.707031 198.558594 276.339844 196.953125 276.773438 C 192.140625 278.046875 187.007812 277.363281 182.679688 274.878906 L 120.25 238.863281 C 117.332031 237.179688 115.535156 234.0625 115.535156 230.699219 L 115.535156 179.261719 C 115.535156 177.578125 114.632812 176.015625 113.179688 175.1875 L 88.761719 161.082031 C 87.300781 160.242188 85.503906 160.242188 84.042969 161.082031 C 82.582031 161.925781 81.6875 163.488281 81.6875 165.171875 L 81.6875 250.234375 C 81.6875 253.597656 83.484375 256.699219 86.402344 258.394531 L 182.679688 313.949219 C 185.507812 315.578125 188.71875 316.433594 191.980469 316.457031 L 192.046875 316.457031 C 192.507812 316.457031 192.96875 316.40625 193.429688 316.378906 C 193.785156 316.351562 194.140625 316.351562 194.492188 316.3125 C 194.980469 316.246094 195.46875 316.128906 195.941406 316.039062 C 196.269531 315.957031 196.597656 315.917969 196.914062 315.839844 C 197.441406 315.707031 197.941406 315.511719 198.441406 315.328125 C 198.730469 315.222656 199.007812 315.15625 199.269531 315.050781 C 200.046875 314.734375 200.808594 314.367188 201.53125 313.949219 L 284.601562 266.019531 L 297.769531 258.554688 C 300.714844 256.882812 302.542969 253.753906 302.542969 250.363281 L 302.542969 133.6875 C 302.542969 132.003906 302.082031 130.382812 301.265625 128.96875 "/>
<g clip-path="url(#clip1)" clip-rule="nonzero">
<path style=" stroke:none;fill-rule:nonzero;fill:rgb(24.308777%,25.489807%,26.669312%);fill-opacity:1;" d="M 201.308594 41.800781 C 198.507812 40.1875 195.347656 39.328125 192.113281 39.296875 C 188.890625 39.328125 185.71875 40.191406 182.917969 41.800781 L 66.902344 108.738281 C 61.082031 112.097656 57.5 118.300781 57.496094 125.015625 L 57.496094 258.898438 C 57.496094 265.617188 61.082031 271.820312 66.902344 275.171875 L 182.917969 342.109375 C 185.757812 343.75 188.96875 344.617188 192.246094 344.632812 C 195.519531 344.617188 198.742188 343.75 201.585938 342.121094 L 317.09375 275.476562 C 322.90625 272.125 326.496094 265.917969 326.496094 259.203125 L 326.496094 220.515625 C 326.484375 218.832031 327.390625 217.28125 328.839844 216.441406 L 353.4375 202.257812 C 354.882812 201.414062 356.6875 201.414062 358.132812 202.257812 C 359.59375 203.097656 360.488281 204.648438 360.488281 206.332031 L 360.488281 278.378906 C 360.476562 281.457031 359.710938 284.480469 358.265625 287.1875 C 357.898438 288.960938 355.964844 291.050781 353.226562 293.195312 C 353.175781 293.246094 353.09375 293.300781 353.03125 293.351562 C 346.085938 298.753906 334.585938 304.328125 332.546875 305.511719 L 201.585938 381.070312 C 198.652344 382.753906 195.308594 383.621094 191.929688 383.582031 L 191.785156 383.582031 L 191.785156 383.566406 C 188.667969 383.488281 185.613281 382.621094 182.917969 381.070312 L 33.144531 294.65625 C 27.324219 291.300781 23.738281 285.097656 23.738281 278.378906 L 23.738281 105.546875 C 23.738281 102.53125 24.121094 99.457031 25.445312 96.855469 C 25.628906 96.179688 27.441406 92.859375 31.183594 90.128906 C 32.59375 89.179688 35.085938 87.90625 37.421875 86.554688 L 182.5 2.855469 C 185.417969 1.171875 188.746094 0.308594 192.113281 0.347656 C 195.496094 0.308594 198.808594 1.171875 201.730469 2.855469 L 335.601562 80.082031 C 335.902344 80.269531 336.140625 80.492188 336.402344 80.703125 L 338.101562 81.671875 C 342.652344 84.085938 349.78125 87.757812 353.648438 90.695312 L 353.964844 90.933594 C 354.015625 90.972656 354.070312 91.011719 354.121094 91.046875 C 354.253906 91.160156 354.347656 91.273438 354.476562 91.390625 C 355.898438 92.578125 357.109375 93.972656 358.042969 95.53125 C 358.070312 95.550781 358.082031 95.578125 358.109375 95.601562 L 358.09375 95.605469 C 359.660156 98.21875 360.488281 101.203125 360.488281 104.242188 L 360.488281 167.527344 C 360.488281 169.210938 359.59375 170.761719 358.136719 171.601562 L 333.535156 185.796875 C 332.089844 186.625 330.289062 186.625 328.839844 185.796875 C 327.378906 184.957031 326.484375 183.40625 326.484375 181.722656 L 326.484375 124.652344 C 326.484375 117.929688 322.894531 111.71875 317.066406 108.363281 L 201.308594 41.800781 L 201.308594 41.804688 Z M 201.308594 41.800781 "/>
</g>
</g>
</svg>
