<svg xmlns="http://www.w3.org/2000/svg" width="200" height="191.667" viewBox="0 0 200 191.667">
  <g id="paper-plane" transform="translate(0 0)">
    <path id="Path_11736" data-name="Path 11736" d="M8.75,17.612V41.083A3.794,3.794,0,0,0,15.6,43.33L29.331,24.646Z" transform="translate(70.01 146.788)" fill="#6ec177"/>
    <path id="Path_11737" data-name="Path 11737" d="M197.375,1.227a5.962,5.962,0,0,0-6.517-.477L3.359,104.435a6.724,6.724,0,0,0-3.342,6.371,6.572,6.572,0,0,0,4.208,5.762L56.35,135.435,167.358,34.927l-85.9,109.588,87.358,31.617a5.959,5.959,0,0,0,5.267-.609,6.682,6.682,0,0,0,2.933-4.677L199.933,7.6a6.807,6.807,0,0,0-2.558-6.371Z" transform="translate(0 0)" fill="#6ec177"/>
  </g>
</svg>
