<svg xmlns="http://www.w3.org/2000/svg" xmlns:xlink="http://www.w3.org/1999/xlink" width="218" height="218" viewBox="0 0 218 218">
  <defs>
    <style>
      .cls-1 {
        fill: none;
      }

      .cls-2, .cls-4 {
        fill: #c7c8d2;
      }

      .cls-2 {
        font-size: 120px;
        font-family: Poppins-Medium, Poppins;
        font-weight: 500;
      }

      .cls-3, .cls-4 {
        stroke: none;
      }

      .cls-5 {
        filter: url(#_);
      }

      .cls-6 {
        filter: url(#Path_11740);
      }
    </style>
    <filter id="Path_11740" x="0" y="0" width="218" height="218" filterUnits="userSpaceOnUse">
      <feOffset dy="3" input="SourceAlpha"/>
      <feGaussianBlur stdDeviation="3" result="blur"/>
      <feFlood flood-opacity="0.161"/>
      <feComposite operator="in" in2="blur"/>
      <feComposite in="SourceGraphic"/>
    </filter>
    <filter id="_" x="61.492" y="16" width="96" height="186" filterUnits="userSpaceOnUse">
      <feOffset dy="3" input="SourceAlpha"/>
      <feGaussianBlur stdDeviation="3" result="blur-2"/>
      <feFlood flood-opacity="0.161"/>
      <feComposite operator="in" in2="blur-2"/>
      <feComposite in="SourceGraphic"/>
    </filter>
  </defs>
  <g id="transactions-icon-active" transform="translate(-65 -395)">
    <g class="cls-6" transform="matrix(1, 0, 0, 1, 65, 395)">
      <g id="Path_11740-2" data-name="Path 11740" class="cls-1" transform="translate(9 6)">
        <path class="cls-3" d="M100,0A100,100,0,1,1,0,100,100,100,0,0,1,100,0Z"/>
        <path class="cls-4" d="M 100 14 C 52.57942199707031 14 14 52.57942199707031 14 100 C 14 147.4205780029297 52.57942199707031 186 100 186 C 147.4205780029297 186 186 147.4205780029297 186 100 C 186 52.57942199707031 147.4205780029297 14 100 14 M 100 0 C 155.2284545898438 0 200 44.77154541015625 200 100 C 200 155.2284545898438 155.2284545898438 200 100 200 C 44.77154541015625 200 0 155.2284545898438 0 100 C 0 44.77154541015625 44.77154541015625 0 100 0 Z"/>
      </g>
    </g>
    <g class="cls-5" transform="matrix(1, 0, 0, 1, 65, 395)">
      <text id="_2" data-name="$" class="cls-2" transform="translate(70.49 148)"><tspan x="0" y="0">$</tspan></text>
    </g>
  </g>
</svg>
